# xmcd
#
# Track frame offsets: 
#        150
#        14708
#        29016
#        46948
#        60540
#        74491
#        89962
#        104542
#        121185
#        138688
#        156328
#
# Disc length: 2373 seconds
#
# Revision: 0
# Processed by: cddbd v1.4PL0 Copyright (c) Steve Scherf et al.
# Submitted via: ExactAudioCopy v0.90b3
#
DISCID=a909430b
DTITLE=Kevin Denney - Kevin Denney
DYEAR=2002
DGENRE=Country
TTITLE0=It Don't Matter
TTITLE1=Correct Me if I'm Wrong
TTITLE2=That's Just Jesse
TTITLE3=Cadillac Tears
TTITLE4=It'll Go Away
TTITLE5=Takin' Off The Edge
TTITLE6=My Kind of Song
TTITLE7=We Rhyme
TTITLE8=That's What I Believe
TTITLE9=Ain't Skeered
TTITLE10=Daddy Was a Navy Man
EXTD=
EXTT0=
EXTT1=
EXTT2=
EXTT3=
EXTT4=
EXTT5=
EXTT6=
EXTT7=
EXTT8=
EXTT9=
EXTT10=
PLAYORDER=
